<?xml version="1.0" ?><!DOCTYPE svg  PUBLIC '-//W3C//DTD SVG 1.1//EN'  'http://www.w3.org/Graphics/SVG/1.1/DTD/svg11.dtd'><svg height="512px" style="enable-background:new 0 0 512 512;" version="1.1" viewBox="0 0 512 512" width="512px" xml:space="preserve" xmlns="http://www.w3.org/2000/svg" xmlns:xlink="http://www.w3.org/1999/xlink"><g id="comp_x5F_171-imdb"><g><path d="M436.714,26.001H75.287c-27.21,0-49.285,22.075-49.285,49.286v361.427c0,27.211,22.075,49.285,49.285,49.285h361.427    c27.211,0,49.284-22.074,49.284-49.285V75.287C485.998,48.076,463.925,26.001,436.714,26.001z M47.872,228.482h-0.309    c0.103-0.104,0.206-0.308,0.309-0.411V228.482z M125.599,321.509H91.716V190.287h33.883V321.509z M241.831,321.509h-29.469    v-88.714l-11.912,88.714H179.3l-12.528-86.763v86.763h-29.776V190.287h43.947c3.39,20.329,6.16,40.968,8.934,61.504l7.803-61.504    h44.152V321.509z M253.535,321.509V190.287h25.261c18.07,0,45.896-1.644,50.311,21.458c1.747,7.805,1.438,16.737,1.438,25.055    C330.544,327.669,341.942,321.612,253.535,321.509L253.535,321.509z M418.744,291.526c0,16.121-2.464,31.729-22.795,31.729    c-9.239,0-15.605-3.081-21.457-10.063l-1.953,8.317h-30.597V190.287h32.55v42.816c6.159-6.674,12.32-9.447,21.457-9.447    c21.974,0,22.795,13.144,22.795,30.907V291.526z M298.099,229.2c0-9.958,1.643-16.428-10.576-16.428v85.94    c12.526,0.31,10.576-8.932,10.576-18.891V229.2z M385.887,256c0-5.544,1.132-13.04-6.364-13.04c-6.162,0-5.03,9.139-5.03,13.04    c0,0.616-1.132,40.66,1.128,45.897c0.821,1.642,2.261,2.465,3.902,2.465c8.008,0,6.364-9.242,6.364-14.788V256z"/></g></g><g id="Layer_1"/></svg>